<svg version="1.1" xmlns="http://www.w3.org/2000/svg" width="400" height="200" style="border: dashed 2px #aaa"><path fill="#324bc7" d="M15.80419921875,109.966796875q0-0.59326171875,0.059326171875-1.417236328125t0.270263671875-1.364501953125q0.0791015625-0.1845703125,0.336181640625-0.362548828125t0.54052734375-0.217529296875t0.5009765625,0.06591796875t0.217529296875,0.46142578125q0,0.61962890625-0.0263671875,1.56884765625l0,0.40869140625q0,0.72509765625,0.06591796875,1.38427734375q0.09228515625,0.8701171875,0.3955078125,1.46337890625q0.263671875,0.54052734375,0.83056640625,0.54052734375l0.10546875,0q0.77783203125-0.052734375,1.14697265625-0.64599609375t0.5009765625-1.41064453125q0.11865234375-0.75146484375,0.11865234375-1.58203125l0-0.158203125q-0.01318359375-0.9228515625-0.01318359375-1.62158203125q0-2.78173828125-0.1845703125-5.57666015625t-0.1845703125-5.60302734375q0-0.46142578125-0.03955078125-1.001953125q-0.01318359375-0.19775390625-0.01318359375-0.3955078125q0-0.31640625,0.03955078125-0.6064453125q0.06591796875-0.46142578125,0.336181640625-0.771240234375t0.916259765625-0.309814453125q0.35595703125,0,0.652587890625,0.085693359375t0.533935546875,0.349365234375q0.30322265625,3.427734375,0.5009765625,6.967529296875t0.19775390625,6.993896484375q0,1.1865234375-0.19775390625,2.38623046875t-0.72509765625,2.162109375t-1.46337890625,1.56884765625t-2.38623046875,0.6064453125q-0.8701171875,0-1.4501953125-0.309814453125t-0.929443359375-0.850341796875t-0.5009765625-1.259033203125t-0.151611328125-1.549072265625z M26.307172851563,109.123046875q0-0.9228515625,0.204345703125-2.17529296875t0.692138671875-2.373046875t1.285400390625-1.905029296875t2.010498046875-0.784423828125q1.1337890625,0,1.70068359375,0.652587890625t0.56689453125,1.760009765625q0,0.72509765625-0.270263671875,1.588623046875t-0.771240234375,1.634765625t-1.1865234375,1.285400390625t-1.529296875,0.51416015625l-0.3427734375-0.0263671875q0,0.35595703125,0.10546875,0.955810546875t0.309814453125,1.193115234375t0.52734375,1.04150390625t0.784423828125,0.4482421875q0.67236328125,0,1.2919921875-0.54052734375t1.17333984375-1.19970703125t1.0283203125-1.19970703125t0.8701171875-0.54052734375q0.2109375,0,0.43505859375,0.06591796875t0.25048828125,0.369140625q0,0.1845703125-0.098876953125,0.30322265625t-0.177978515625,0.263671875q-0.40869140625,0.69873046875-0.889892578125,1.33154296875t-1.087646484375,1.14697265625t-1.324951171875,0.810791015625t-1.588623046875,0.296630859375q-1.1337890625,0-1.88525390625-0.402099609375t-1.212890625-1.0810546875t-0.665771484375-1.56884765625t-0.204345703125-1.865478515625z M28.667036132813,108.12109375l0.369140625,0.32958984375q0.263671875,0.2373046875,0.52734375,0.10546875t0.474609375-0.481201171875t0.388916015625-0.863525390625t0.31640625-1.0546875t0.204345703125-1.0546875t0.06591796875-0.85693359375l0-0.4482421875t-0.03955078125-0.474609375t-0.138427734375-0.375732421875t-0.309814453125-0.191162109375q-0.06591796875-0.01318359375-0.11865234375-0.01318359375q-0.4482421875,0-0.7646484375,0.56689453125q-0.3427734375,0.6328125-0.5537109375,1.535888671875t-0.30322265625,1.852294921875t-0.11865234375,1.423828125z M37.324306640625,104.89111328125q0-0.54052734375,0.191162109375-0.90966796875t0.810791015625-0.369140625q0.2373046875,0,0.59326171875,0.072509765625t0.40869140625,0.362548828125q0.1318359375,0.77783203125,0.14501953125,1.6875t0.09228515625,1.7138671875q0.30322265625-0.59326171875,0.77783203125-1.27880859375t1.0810546875-1.265625t1.318359375-0.96240234375t1.4501953125-0.38232421875q0.052734375,0,0.19775390625,0.03955078125t0.270263671875,0.112060546875t0.151611328125,0.164794921875t-0.14501953125,0.17138671875q-0.052734375,0.158203125-0.22412109375,0.191162109375t-0.30322265625,0.032958984375q-0.0791015625,0-0.25048828125-0.06591796875q-0.9755859375,0.51416015625-1.6611328125,1.3974609375t-1.12060546875,1.957763671875t-0.6328125,2.267578125t-0.19775390625,2.326904296875q0,0.56689453125-0.257080078125,0.685546875t-0.823974609375,0.11865234375q-0.30322265625,0-0.639404296875-0.06591796875t-0.468017578125-0.421875q-0.2373046875-0.75146484375-0.388916015625-1.72705078125t-0.230712890625-2.010498046875t-0.112060546875-2.036865234375t-0.032958984375-1.80615234375z M46.693491210938,104.89111328125q0-0.54052734375,0.191162109375-0.90966796875t0.810791015625-0.369140625q0.2373046875,0,0.59326171875,0.072509765625t0.40869140625,0.362548828125q0.1318359375,0.77783203125,0.14501953125,1.6875t0.09228515625,1.7138671875q0.30322265625-0.59326171875,0.77783203125-1.27880859375t1.0810546875-1.265625t1.318359375-0.96240234375t1.4501953125-0.38232421875q0.052734375,0,0.19775390625,0.03955078125t0.270263671875,0.112060546875t0.151611328125,0.164794921875t-0.14501953125,0.17138671875q-0.052734375,0.158203125-0.22412109375,0.191162109375t-0.30322265625,0.032958984375q-0.0791015625,0-0.25048828125-0.06591796875q-0.9755859375,0.51416015625-1.6611328125,1.3974609375t-1.12060546875,1.957763671875t-0.6328125,2.267578125t-0.19775390625,2.326904296875q0,0.56689453125-0.257080078125,0.685546875t-0.823974609375,0.11865234375q-0.30322265625,0-0.639404296875-0.06591796875t-0.468017578125-0.421875q-0.2373046875-0.75146484375-0.388916015625-1.72705078125t-0.230712890625-2.010498046875t-0.112060546875-2.036865234375t-0.032958984375-1.80615234375z M56.06267578125,105.642578125q0-0.38232421875,0.217529296875-0.5009765625t0.547119140625-0.11865234375q0.54052734375,0,0.823974609375,0.204345703125t0.283447265625,0.718505859375q0,0.61962890625,0.09228515625,1.549072265625t0.270263671875,1.80615234375t0.421875,1.509521484375t0.507568359375,0.6328125q0.48779296875,0,0.863525390625-0.75146484375t0.6591796875-1.845703125t0.48779296875-2.353271484375t0.283447265625-2.247802734375q0.052734375-0.54052734375,0.257080078125-0.784423828125t0.744873046875-0.243896484375q0.61962890625,0,0.903076171875,0.51416015625t0.362548828125,1.265625q0.06591796875,0.64599609375,0.06591796875,1.3447265625l0,0.22412109375l0,0.52734375q0,0.5009765625,0.01318359375,0.896484375l0.38232421875,8.08154296875l0.052734375,1.3447265625q0.0263671875,0.1845703125,0.03955078125,0.349365234375t0.01318359375,0.349365234375q0,0.75146484375-0.322998046875,0.968994140625t-1.048095703125,0.217529296875q-0.158203125,0-0.402099609375-0.0263671875t-0.474609375-0.10546875t-0.3955078125-0.217529296875t-0.164794921875-0.349365234375l0.052734375-0.1318359375q0.06591796875-0.791015625,0.06591796875-1.6611328125l0-0.27685546875q-0.01318359375-1.0283203125-0.06591796875-2.0830078125t-0.11865234375-2.109375t-0.06591796875-2.0302734375q-0.1845703125,0.40869140625-0.428466796875,0.84375t-0.56689453125,0.784423828125t-0.731689453125,0.580078125t-0.9228515625,0.230712890625q-0.75146484375,0-1.2392578125-0.3955078125t-0.758056640625-1.0283203125t-0.388916015625-1.417236328125t-0.158203125-1.56884765625t-0.052734375-1.496337890625t-0.10546875-1.19970703125z M72.137958984375,97.646728515625q-0.0263671875-0.349365234375,0.059326171875-0.6591796875t0.322998046875-0.51416015625t0.80419921875-0.204345703125q0.1318359375,0,0.322998046875,0.0263671875t0.38232421875,0.085693359375t0.309814453125,0.164794921875t0.11865234375,0.2900390625q0,0.48779296875,0.032958984375,1.285400390625t0.085693359375,1.6611328125t0.098876953125,1.6875t0.085693359375,1.338134765625q1.0283203125-0.052734375,2.06982421875-0.052734375t2.056640625-0.052734375l1.8193359375-0.052734375l0-1.30517578125q0-2.1884765625-0.085693359375-4.383544921875t-0.296630859375-4.383544921875q0-0.158203125,0.1318359375-0.257080078125t0.309814453125-0.151611328125t0.369140625-0.06591796875t0.296630859375-0.01318359375q0.30322265625,0,0.652587890625,0.09228515625t0.402099609375,0.3955078125l0.0791015625,0.56689453125q0.32958984375,2.373046875,0.4482421875,4.693359375t0.17138671875,4.640625q0.158203125,0.0263671875,0.336181640625,0.085693359375t0.362548828125,0.112060546875q0.1318359375,0.052734375,0.375732421875,0.158203125t0.243896484375,0.32958984375q0,0.2109375-0.1845703125,0.32958984375t-0.415283203125,0.177978515625t-0.4482421875,0.072509765625t-0.270263671875,0.01318359375q0.0263671875,0.9755859375,0.0263671875,1.944580078125l0,1.944580078125l0,4.25830078125l0,2.373046875q0,0.158203125-0.151611328125,0.283447265625t-0.362548828125,0.204345703125t-0.441650390625,0.10546875t-0.415283203125,0.0263671875t-0.43505859375-0.0263671875t-0.4482421875-0.10546875t-0.349365234375-0.19775390625t-0.151611328125-0.2900390625l0-0.56689453125q0.052734375-2.5048828125,0.11865234375-4.963623046875t0.1318359375-4.937255859375q-1.43701171875,0.052734375-2.920166015625,0.06591796875t-2.946533203125,0.06591796875q0.158203125,1.85888671875,0.362548828125,3.711181640625t0.428466796875,3.711181640625q0,0.158203125-0.151611328125,0.283447265625t-0.35595703125,0.204345703125t-0.43505859375,0.10546875t-0.415283203125,0.0263671875q-0.38232421875,0-0.837158203125-0.1318359375t-0.507568359375-0.48779296875q-0.158203125-1.3974609375-0.296630859375-3.0849609375t-0.243896484375-3.447509765625t-0.164794921875-3.447509765625t-0.059326171875-3.05859375q0-0.32958984375-0.0263671875-0.678955078125z M87.202456054688,109.123046875q0-0.9228515625,0.204345703125-2.17529296875t0.692138671875-2.373046875t1.285400390625-1.905029296875t2.010498046875-0.784423828125q1.1337890625,0,1.70068359375,0.652587890625t0.56689453125,1.760009765625q0,0.72509765625-0.270263671875,1.588623046875t-0.771240234375,1.634765625t-1.1865234375,1.285400390625t-1.529296875,0.51416015625l-0.3427734375-0.0263671875q0,0.35595703125,0.10546875,0.955810546875t0.309814453125,1.193115234375t0.52734375,1.04150390625t0.784423828125,0.4482421875q0.67236328125,0,1.2919921875-0.54052734375t1.17333984375-1.19970703125t1.0283203125-1.19970703125t0.8701171875-0.54052734375q0.2109375,0,0.43505859375,0.06591796875t0.25048828125,0.369140625q0,0.1845703125-0.098876953125,0.30322265625t-0.177978515625,0.263671875q-0.40869140625,0.69873046875-0.889892578125,1.33154296875t-1.087646484375,1.14697265625t-1.324951171875,0.810791015625t-1.588623046875,0.296630859375q-1.1337890625,0-1.88525390625-0.402099609375t-1.212890625-1.0810546875t-0.665771484375-1.56884765625t-0.204345703125-1.865478515625z M89.562319335938,108.12109375l0.369140625,0.32958984375q0.263671875,0.2373046875,0.52734375,0.10546875t0.474609375-0.481201171875t0.388916015625-0.863525390625t0.31640625-1.0546875t0.204345703125-1.0546875t0.06591796875-0.85693359375l0-0.4482421875t-0.03955078125-0.474609375t-0.138427734375-0.375732421875t-0.309814453125-0.191162109375q-0.06591796875-0.01318359375-0.11865234375-0.01318359375q-0.4482421875,0-0.7646484375,0.56689453125q-0.3427734375,0.6328125-0.5537109375,1.535888671875t-0.30322265625,1.852294921875t-0.11865234375,1.423828125z"/><path fill="#" d=""/></svg>
